
<svg width="29" height="29" viewBox="0 0 29 29" fill="none" xmlns="http://www.w3.org/2000/svg">
<path d="M26.0705 6.66887C25.9855 6.56707 25.8791 6.48519 25.7589 6.42901C25.6387 6.37283 25.5077 6.34373 25.375 6.34375H7.10047L6.41172 2.55676C6.37378 2.34794 6.26376 2.15907 6.10084 2.02306C5.93792 1.88705 5.73243 1.81253 5.5202 1.8125H2.71875C2.4784 1.8125 2.24789 1.90798 2.07793 2.07793C1.90798 2.24789 1.8125 2.4784 1.8125 2.71875C1.8125 2.9591 1.90798 3.18961 2.07793 3.35957C2.24789 3.52952 2.4784 3.625 2.71875 3.625H4.75781L7.65328 19.5172C7.73857 19.9885 7.94686 20.429 8.25707 20.7939C7.82892 21.1938 7.51989 21.7045 7.36425 22.2693C7.20861 22.8341 7.21245 23.431 7.37532 23.9937C7.5382 24.5565 7.85376 25.0632 8.28701 25.4575C8.72025 25.8519 9.25426 26.1186 9.82982 26.228C10.4054 26.3374 11 26.2853 11.5477 26.0774C12.0955 25.8695 12.5749 25.5139 12.9329 25.0502C13.2909 24.5864 13.5135 24.0326 13.576 23.4501C13.6384 22.8675 13.5383 22.2791 13.2868 21.75H18.432C18.2292 22.1744 18.1243 22.639 18.125 23.1094C18.125 23.7367 18.311 24.35 18.6596 24.8716C19.0081 25.3932 19.5035 25.7997 20.0831 26.0398C20.6626 26.2799 21.3004 26.3427 21.9157 26.2203C22.531 26.0979 23.0961 25.7958 23.5397 25.3522C23.9833 24.9086 24.2854 24.3435 24.4078 23.7282C24.5302 23.1129 24.4674 22.4751 24.2273 21.8956C23.9872 21.316 23.5807 20.8206 23.0591 20.4721C22.5375 20.1235 21.9242 19.9375 21.2969 19.9375H10.3279C10.1156 19.9375 9.91013 19.863 9.74721 19.7269C9.58428 19.5909 9.47426 19.4021 9.43633 19.1932L9.07723 17.2188H22.2179C22.8545 17.2187 23.471 16.9951 23.9598 16.5871C24.4486 16.179 24.7786 15.6124 24.8924 14.986L26.2699 7.41199C26.2932 7.28108 26.2875 7.14665 26.253 7.01822C26.2186 6.88979 26.1563 6.77052 26.0705 6.66887ZM11.7812 23.1094C11.7812 23.3782 11.7015 23.6411 11.5522 23.8646C11.4028 24.0882 11.1905 24.2624 10.9421 24.3653C10.6937 24.4682 10.4204 24.4951 10.1567 24.4426C9.89298 24.3902 9.65076 24.2607 9.46065 24.0706C9.27054 23.8805 9.14107 23.6383 9.08862 23.3746C9.03617 23.1109 9.06309 22.8376 9.16598 22.5892C9.26886 22.3408 9.4431 22.1285 9.66665 21.9791C9.8902 21.8297 10.153 21.75 10.4219 21.75C10.7824 21.75 11.1282 21.8932 11.3831 22.1482C11.638 22.4031 11.7812 22.7488 11.7812 23.1094ZM22.6562 23.1094C22.6562 23.3782 22.5765 23.6411 22.4272 23.8646C22.2778 24.0882 22.0655 24.2624 21.8171 24.3653C21.5687 24.4682 21.2954 24.4951 21.0317 24.4426C20.768 24.3902 20.5258 24.2607 20.3357 24.0706C20.1455 23.8805 20.0161 23.6383 19.9636 23.3746C19.9112 23.1109 19.9381 22.8376 20.041 22.5892C20.1439 22.3408 20.3181 22.1285 20.5416 21.9791C20.7652 21.8297 21.028 21.75 21.2969 21.75C21.6574 21.75 22.0032 21.8932 22.2581 22.1482C22.513 22.4031 22.6562 22.7488 22.6562 23.1094ZM23.1094 14.662C23.0713 14.8714 22.9608 15.0607 22.7972 15.1968C22.6336 15.3329 22.4273 15.407 22.2145 15.4062H8.74758L7.43012 8.15625H24.2886L23.1094 14.662Z" fill="black"/>
</svg>
